<svg xmlns="http://www.w3.org/2000/svg" viewBox="0 0 210 297" height="1122.52" width="793.701"  xmlns:v="https://vecta.io/nano"><path d="M101.391 241.061c-.134-.342-.249-1.712-.389-4.658l-.145-2.683c-.019-.188-.057-4.095-.085-8.682l-.1-13.705-.049-56.139h-1.628l-.063 1.244c-.09 1.774-.079 2.643.037 2.86.077.144.206.189.541.189.242 0 .568.066.724.147l.284.147-.304.49c-.299.48-.416.551-1.004.605l-.293.027-.062 39.312-.132 39.674c-.13.67-.428.706-.823.099-.205-.316-.246-.53-.312-1.632-.246-4.139-.378-25.26-.379-60.752v-16.758l-1.707.056-.027 4.438-.102 39.263-.19 35.093c-.14.327-.405.346-.676.049-.441-.484-.415-.284-.579-4.56-.036-.939-.091-16.127-.124-33.752l-.059-32.044-.255.268c-.22.231-.358.277-1 .331l-.757.073c-.007.006-.046 15.637-.087 34.737l-.145 35.044c-.098.441-.446.437-.721-.008-.607-.982-.644-3.412-.644-41.93v-27.867l-2.731.035-.026 3.1c-.022 2.652-.005 3.108.117 3.155s.12.098-.023.365c-.155.29-.168 2.212-.2 29.28l-.233 33.269c-.134.134-.579-.11-.773-.422-.511-.826-.628-7.787-.652-38.844l-.099-22.367c-.045-.045-.45-.068-.901-.053l-.82.029-.062 30.045-.147 30.484c-.08.414-.102.437-.377.409-.345-.036-.692-.409-.83-.897-.227-.797-.3-8.512-.32-33.703l-.021-26.338h-2.634v5.072l.878.11c.483.061 1.026.171 1.206.246l.328.135-.448.413c-.43.396-.473.413-1.076.413-.346 0-.698.027-.783.059-.14.054-.155 2.243-.16 23.777l-.283 29.445c-.131.439-.259.409-.606-.143-.709-1.128-.759-3.173-.778-31.678l-.058-20.806-.044-.564-1.884.056-.058 25.46-.122 25.728a21.06 21.06 0 0 0-.115.512c-.127.613-.907-.002-1.052-.829-.033-.188-.088-1.922-.122-3.853l-.096-3.902c-.018-.215-.061-9.96-.096-21.656l-.102-21.392c-.028-.092-.233-.118-.748-.098l-.709.029-.059 24.875-.317 25.77c-.207.207-.743-.763-.812-1.469-.15-1.528-.296-16.346-.311-31.614l-.097-17.538c-.044-.044-.559-.067-1.144-.052l-1.065.028-.052 23.997c-.054 24.933-.05 24.696-.427 24.944-.17.112-.831-.611-.954-1.042-.154-.541-.233-8.332-.263-25.901l-.054-14.632c-.016-.134-.035-1.857-.042-3.829l-.012-3.585-1.244.001c-.684.001-1.3.037-1.368.08-.098.062-.115.802-.081 3.535l.043 3.7-.07 19.022c-.07 19.084-.078 19.423-.414 19.753-.126.124-.727-.561-.856-.975-.156-.503-.2-1.526-.252-5.902l-.098-7.901-.048-13.535-.001-9.877-1.27.032c-.699.017-1.312.074-1.364.125-.059.059-.104 6.744-.121 17.99-.029 18.855-.024 18.629-.45 18.629-.219 0-.651-.449-.796-.829-.264-.691-.314-3.265-.375-19.266l-.062-16.534-2.585-.054-.009 5.539-.002 11.489c.01 8.172-.119 15.71-.276 16.12-.15.391-.373.406-.706.049-.691-.74-.679-.465-.749-17.876l-.061-15.266-1.343-.027c-1.024-.021-1.353.003-1.383.098-.022.069-.063 6.731-.092 14.806-.051 14.312-.077 15.47-.355 15.748-.151.151-.389-.042-.723-.586l-.293-.477-.078-2.538c-.043-1.396-.088-8.047-.1-14.78l-.022-12.242-1.407-.027c-.774-.015-1.443.009-1.487.053s-.089 4.314-.1 9.489l-.242 17.018c-.128.393-.345.369-.7-.079-.327-.411-.367-.634-.45-2.506-.071-1.603-.145-7.46-.205-16.234l-.102-7.682c-.027-.044-.282-.081-.566-.081-.645 0-1.105-.155-1.182-.398a.57.57 0 0 0-.239-.283c-.151-.081-.162-.134-.069-.331.181-.384.664-.579 1.434-.579h.684l-.051-6.359h-3.609l-.061 14.632c-.063 15.099-.075 15.509-.441 15.629-.061.02-.276-.164-.477-.409-.343-.419-.37-.5-.441-1.346-.112-1.336-.184-6.62-.247-18.068l-.095-10.366c-.03-.096-.522-.118-2.211-.098l-2.173.026-.059 11.023c-.062 11.504-.081 11.998-.471 11.998-.077 0-.292-.212-.479-.472l-.339-.472-.073-1.82c-.04-1.001-.104-5.947-.142-10.99l-.113-9.243c-.024-.04-.39-.073-.812-.073-.807 0-1.071-.067-1.452-.372-.199-.159-.219-.226-.139-.468.142-.43.772-.734 1.673-.807l.747-.061v-4.682h-5.95l-.023 2.487-.294 16.087c-.1.592-.277.609-.524.05-.457-1.033-.637-3.874-.725-11.407l-.092-5.95-.039-1-.009-.317h-.765c-.972 0-1.451-.207-1.394-.604.005-.037-.077-.095-.184-.128-.243-.077-.242-.154.006-.471s.731-.454 1.631-.455l.709-.001-.052-5.804-3.029-.049c-2.684-.043-3.059-.068-3.292-.222-.145-.095-.264-.238-.264-.317 0-.266-.195-.147-.203.124l-.091 4.17c-.046 2.146-.121 4.055-.167 4.243-.149.607-.36.481-.61-.361-.581-1.964-.566-1.83-.633-5.547l-.104-4.675c-.023-.644-.042-2.389-.044-3.878l-.003-2.707-.707-.002c-.863-.003-1.536-.26-1.536-.587a.26.26 0 0 0-.195-.26c-.237-.062-.24-.114-.022-.383.282-.348.609-.453 1.557-.503l.908-.047-.053-3.924-1.268.03c-.986.023-1.35-.004-1.634-.123-.354-.148-.366-.17-.366-.642 0-.435.028-.499.25-.584.138-.052.885-.095 1.661-.095h1.411l-.054-3.073-3.249-.173-.058-.292a4.54 4.54 0 0 1-.058-.718v-.427h3.422l-.057-1.61-1.355-.027c-1.16-.023-1.393-.055-1.622-.218-.243-.173-.263-.233-.219-.656.027-.256.088-.508.137-.56s.756-.118 1.573-.146l1.485-.051.098-2.178-1.557-.012c-.856-.007-1.569-.025-1.585-.041s.021-.376.081-.801l.109-.772 2.909.067-.055-2.603-1.021-.025c-1.281-.031-1.333-.071-1.212-.92l.088-.616 2.201.062-.055-2.599-.599-.029c-.446-.021-.643-.078-.772-.22-.191-.211-.215-.813-.041-1.023.058-.07.421-.157.807-.194l.702-.067.584-.77c.321-.423.618-.77.66-.77.117 0 .34.58.43 1.122l.082.488 6.584.051v-2.061l-4.645.016c-3.838.014-4.66-.007-4.73-.117-.1-.158-.108-.483-.025-.987l.06-.366h9.322l.033-.561a9.16 9.16 0 0 0 .003-.975l-.03-.415-4.165.024c-3.963.023-4.178.015-4.44-.162-.184-.125-.26-.246-.229-.366.026-.099.007-.179-.042-.179-.135 0-.105-.33.049-.54.132-.181.288-.186 4.473-.156 4.148.03 4.338.024 4.38-.148.034-.138.026-1.783-.01-2.204-.003-.04-1.677-.073-3.72-.073-3.393 0-3.859-.026-4.155-.233-.009-.006.038-.253.105-.548l.121-.537 7.962-.051.633-.592c.348-.326.669-.555.713-.511s.093.3.11.569l.03.488h5.853v-2.502l-7.033.011c-5.917.009-7.051-.011-7.146-.126-.088-.106-.064-.272.102-.735l.215-.599h13.91v-1.935l.379-.301c.307-.243.437-.289.684-.24.428.086.594.492.639 1.557l.036.869 4.407.052v-3.05l-8.811.073c-8.343.069-8.831.063-9.178-.102-.202-.096-.392-.244-.422-.33a1.26 1.26 0 0 0-.2-.324c-.124-.145-.125-.192-.01-.332.355-.428.296-.426 9.692-.426h8.929v-1.837l.492-.361c.271-.199.465-.389.431-.423s-3.822-.047-8.418-.03c-8.108.03-8.367.026-8.698-.157-.199-.11-.355-.278-.373-.403-.018-.118-.094-.238-.171-.268-.211-.081-.162-.255.133-.471.26-.192.458-.196 11.092-.244l10.827-.049.05-.293c.036-.214.142-.338.393-.461.483-.236.869-.118 1.12.343.107.197.239.373.293.389s.695.013 1.426-.008l1.328-.038.063-.683c.09-.972.152-1.054.788-1.054.495 0 .535.018.683.315.087.173.184.569.216.878l.059.563h2.704v-1.926l.805-.049c.443-.027.822-.033.844-.014s.06.474.086 1.012l.047.977h2.608v-2.057l.756.061c.416.033.809.077.874.097.079.024.128.339.146.943l.028.907h2.536l.049-.654c.064-.853.133-.917.838-.776.687.138.82.244.82.655 0 .178.043.436.095.573l.095.25h2.546l.095-.25c.066-.173.148-.235.266-.201l.867.251c.685.199.845.202 9.365.179l24.471.122c1.72.043 2.517.099 2.705.19.226.11.375.105.975-.029.925-.207 6.353-.279 23.34-.308l13.023-.168c.898-.299.969-.301 1.073-.028l.095.249 2.588-.054.025-.293c.014-.161.069-.452.123-.648.094-.343.119-.359.738-.476.366-.069.676-.084.723-.035s.119.393.164.768l.081.683h2.536l.056-1.875.801-.055c.44-.03.816-.04.835-.021s.058.476.088 1.017l.054.983h2.605v-.97c0-.533.033-.989.073-1.012s.435-.02.878.007l.805.049v1.926h2.731v-.561c0-.387.06-.659.194-.878.18-.296.229-.317.728-.317.661 0 .736.11.736 1.067v.689h1.11c.61 0 1.243.027 1.407.059.268.054.322.02.552-.345.322-.511.653-.65 1.122-.472.257.098.373.217.456.469l.11.338 10.815.049c10.622.048 10.82.052 11.08.244.294.216.343.391.133.471-.076.029-.153.15-.171.268-.019.125-.174.293-.373.403-.331.182-.596.187-8.698.157-4.596-.017-8.385-.003-8.419.032s.137.207.382.382l.445.32v1.918h8.978c9.448 0 9.385-.003 9.741.426.116.14.114.188-.01.332a1.26 1.26 0 0 0-.2.324c-.03.085-.219.233-.42.329-.344.163-.89.171-9.203.137l-8.837-.036-.054 2.975h4.492v-.854c0-.978.192-1.515.561-1.568.121-.017.219-.074.219-.125 0-.133.294.037.667.386.304.284.308.299.308 1.224v.936h13.901l.222.609c.21.578.213.616.05.735-.137.1-1.594.123-7.148.115l-6.976-.011-.054 2.551h5.859v-.42c0-.231.058-.5.13-.598.12-.164.176-.134.768.42l.639.598h7.918l.106.415c.058.228.123.466.144.529.113.339-.205.372-4.087.422l-3.814.049-.055 2.408 4.402-.032c4.248-.031 4.407-.025 4.539.156.157.215.183.54.043.54-.052 0-.071.061-.042.136.094.245-.344.532-.921.604-.3.037-2.198.036-4.217-.002-3.371-.065-3.677-.057-3.734.092-.079.206-.081 1.446-.003 1.65.053.138.56.154 4.718.154h4.659l.06.366c.097.585.073.87-.084 1-.113.093-1.199.117-4.731.104l-4.585-.017-.012.298-.012.444c0 .08.005.41.012.733l.012.587 6.584-.051.049-.541c.045-.498.294-1.069.467-1.069.04 0 .334.347.654.771l.582.771.704.066c.387.036.751.123.809.193.172.207.152.823-.033 1.008-.106.106-.384.183-.772.215l-.606.049-.055 2.603 2.201-.067.088.616c.121.849.069.888-1.212.92l-1.021.025-.055 2.598 2.883-.043.126.759c.069.417.112.774.093.792s-.733.038-1.59.045l-1.557.012.098 2.178 1.485.051c.817.028 1.527.094 1.578.146s.105.304.12.56c.044.748-.053.795-1.747.852l-1.436.049-.057 1.61h3.422v.427c0 .235-.026.558-.058.718l-.058.292-3.249.173-.054 3.073h1.411c.776 0 1.523.043 1.661.095.223.085.25.149.25.584 0 .473-.012.494-.366.642-.284.119-.648.147-1.634.123l-1.268-.03-.053 3.924.908.047c.937.049 1.258.153 1.552.506.222.265.219.318-.017.38a.26.26 0 0 0-.195.26c0 .327-.674.585-1.536.587-.389.001-.711.035-.715.075a1065.6 1065.6 0 0 0-.053 5.383l-.123 7.462c-.076 2.111-.085 2.177-.451 3.397-.291.967-.411 1.244-.542 1.244-.092 0-.196-.072-.229-.16-.134-.349-.249-3.069-.251-5.913-.001-1.934-.036-3-.099-3-.054 0-.098.065-.098.144s-.119.222-.264.317c-.234.153-.609.179-3.292.222l-3.029.049-.052 5.804.709.001c.9.001 1.379.134 1.631.455s.25.393.004.471c-.107.034-.195.144-.195.243 0 .302-.528.488-1.381.488-.544 0-.767.035-.771.122-.05 1.039-.067 1.908-.094 4.755-.071 7.549-.212 11.199-.493 12.799-.108.616-.44 1.443-.58 1.443-.374 0-.413-.859-.477-10.34l-.059-8.731h-5.95v4.682l.733.06c.905.074 1.479.342 1.659.776.119.287.111.323-.108.497-.386.307-.647.374-1.456.374-.423 0-.788.033-.811.073s-.071 3.958-.104 8.706l-.218 12.996c-.057.493-.605 1.344-.865 1.344-.32 0-.369-.675-.443-6.146l-.084-11.194-.01-5.78h-2.14c-1.177 0-2.16.033-2.184.073s-.07 4.375-.102 9.633l-.261 18.967c-.084.79-.104.84-.5 1.244-.227.231-.445.421-.485.421-.138 0-.279-.736-.325-1.707-.051-1.057-.144-16.432-.146-23.972l-.001-4.658h-1.752c-1.574 0-1.76.017-1.831.171-.043.094-.077 1.532-.077 3.195l.001 3.024.713.012c.782.013 1.285.209 1.44.561.075.171.028.274-.271.588-.343.36-.403.385-1.092.441-.401.033-.752.082-.779.109s-.061 4.35-.076 9.606l-.222 15.89c-.078.518-.587 1.325-.837 1.325-.411 0-.42-.256-.479-13.901l-.056-12.974h-2.926l-.06 14.583-.14 14.827c-.096.293-.413.862-.612 1.097-.222.261-.491.214-.56-.098a2.75 2.75 0 0 0-.124-.415c-.036-.08-.087-6.862-.114-15.071l-.049-14.925-1.343-.027c-1.024-.021-1.353.003-1.382.098-.021.069-.065 7.016-.097 15.44l-.149 16.066c-.094.774-.27 1.235-.618 1.615-.218.238-.504.287-.616.105-.245-.396-.27-1.748-.324-17.103l-.056-16.193h-2.536l-.059 16.144-.291 19.272c-.108.56-.581 1.213-.879 1.213-.115 0-.236-.107-.305-.268-.172-.401-.224-4.81-.252-21.529l-.074-14.872c-.085-.085-2.577-.122-2.582-.039-.002.043-.022 6.158-.045 13.589l-.248 22.859c-.072.633-.143.842-.414 1.219-.731 1.018-.855.637-.942-2.91-.036-1.475-.077-9.969-.091-18.876l-.061-23.802h-2.634l-.025 7.121-.303 40.818c-.129.401-.766 1.083-.946 1.014-.392-.15-.383.357-.434-24.81l-.049-24.143-1.099-.028c-.828-.021-1.109.003-1.14.098-.023.069-.063 8.948-.091 19.732l-.098 20.095c-.027.268-.073 2.427-.104 4.796l-.112 4.634c-.128.723-.616 1.494-.817 1.291-.294-.297-.312-1.575-.358-25.89l-.086-24.655c-.043-.134-1.268-.178-1.346-.049-.024.04-.074 8.984-.111 19.875l-.1 21.509-.102 5.505c-.038 2.089-.106 3.928-.152 4.087-.096.336-.476.92-.64.983-.254.098-.423-.201-.522-.92-.066-.483-.114-9.182-.139-25.46l-.055-25.654h-.93c-.658 0-.941.036-.969.122-.022.067-.062 10.833-.089 23.924l-.385 27.967c-.17.813-.46 1.385-.721 1.424-.511.076-.518-.296-.574-27.831l-.091-25.582c-.026-.083-.268-.122-.753-.122-.714 0-.715 0-1.13-.424l-.416-.424.518-.157c.285-.086.814-.186 1.176-.222l.658-.065v-5.147h-1.271c-.929 0-1.283.033-1.314.122-.023.067-.062 13.093-.085 28.947l-.096 29.264c-.029.241-.08.768-.112 1.171-.065.813-.387 1.463-.725 1.463-.102 0-.25.025-.328.055-.341.131-.358-.961-.384-25.417l-.078-35.613-1.704.056-.066 1.414c-.036.778-.06 11.862-.053 24.631l-.173 30.386c-.021.188-.064 1.132-.096 2.097-.071 2.119-.161 2.594-.556 2.926-.374.315-.529.309-.614-.024-.164-.643-.229-10.3-.238-35.348l-.203-27.034c-.193-.245-.193-.246.001-.297s.194-.123.169-3.157l-.026-3.106-1.294-.027c-.984-.021-1.304.003-1.335.098-.022.069-.066 13.711-.096 30.316l-.099 31.167a200.62 200.62 0 0 0-.093 3.707c-.052 2.932-.143 3.842-.443 4.431-.228.448-.636.594-.729.261-.209-.754-.249-7.285-.25-40.112l-.001-29.86-.751-.063c-.634-.054-.794-.104-1.024-.325l-.273-.262.003 21.162-.254 47.451c-.056 1.091-.086 1.216-.399 1.634-.264.352-.65.426-.764.146-.201-.494-.236-6.191-.252-40.556l-.063-37.922-.046-.463h-.822c-.571 0-.835.037-.864.122-.023.067-.061 16.539-.084 36.605l-.092 36.776c-.027.161-.078 1.312-.114 2.557s-.101 2.387-.144 2.536c-.198.673-.664 1.166-.888.94-.262-.264-.283-2.382-.309-31.298l-.078-48.237h-.423c-.454 0-.555-.076-.929-.701l-.216-.36.224-.125c.123-.069.465-.148.76-.176l.537-.052.053-4.243h-1.662l-.009 2.414-.038 32.02-.534 49.896c-.117 1.407-.239 1.827-.521 1.786-.299-.043-.341-.404-.355-3.066-.007-1.24-.031-2.354-.054-2.474s-.055-17.015-.07-37.544l-.077-40.203-.049-2.878h-1.658l-.005 38.97-.239 45.418c-.137 1.268-.593 2.013-1.05 1.716-.068-.044-.214-.339-.325-.656-.275-.783-.351-2.942-.371-10.629l-.054-6.243c-.021-.107-.041-15.592-.046-34.41l-.007-34.215-.756.001c-.416.001-.81.036-.877.078-.095.06-.125 7.211-.142 34.067l-.223 51.866c-.104.309-.422.281-.551-.049zM62.459 187.41l-.026-3.292-1.122-.028c-.617-.016-1.221-.004-1.343.027l-.221.055.051 6.385.975.054 1.71.092zm87.003 3.195h.719l-.051-6.487-1.211-.028c-.726-.016-1.251.012-1.31.071-.11.11-.205 6.294-.099 6.464.039.064.282.079.649.04a15.32 15.32 0 0 1 1.305-.061zm-91.418-3.268v-3.219h-2.536l-.051 6.381.709.036c.39.02.972.033 1.294.029l.585-.007v-3.219zm96.11 3.172l.416-.002-.051-6.389h-2.536l-.026 3.121c-.014 1.716-.002 3.182.026 3.257.042.109.224.124.904.076.468-.033 1.039-.061 1.267-.062zm-100.532-.052c.106-.041.121-.632.081-3.195l-.049-3.145h-2.731v6.243l.878.055c1.416.088 1.684.094 1.821.042zm105.41-.102c.094-.029.114-.347.083-1.333a150.92 150.92 0 0 1-.05-3.127l-.01-1.832-2.683.054-.049 3.146c-.032 2.051-.015 3.161.049 3.189.11.048 2.469-.038 2.66-.097zm-110.669-.036l.951-.007-.012-2.024c-.007-1.113-.04-2.507-.073-3.097l-.061-1.073h-2.829l-.051 6.183.416.031c.229.017.482.023.562.013s.574-.021 1.097-.026zm115.352-3.105l-.026-3.097h-2.826l-.069.39c-.038.215-.072 1.608-.075 3.097l-.006 2.707h3.027zm-86.04-7.019c.013-1.298-.003-2.429-.035-2.512-.046-.12-.227-.151-.869-.151-.446 0-.88.027-.965.059-.135.052-.154.362-.154 2.471 0 1.327.031 2.443.068 2.48s.487.056 1 .041l.931-.028zm56.624 2.121c.09-.614.022-4.587-.081-4.689-.062-.062-.452-.092-.972-.075l-.869.028-.026 2.388c-.014 1.313-.005 2.444.021 2.512.034.088.314.124.966.124h.919zm-63.351-2.242c.014-1.311-.008-2.415-.049-2.454s-.569-.047-1.172-.017l-1.097.054v2.36c0 1.298.031 2.39.068 2.428s.553.056 1.146.041l1.078-.027zm3.047.005v-2.427l-.658-.045c-.362-.025-.713-.025-.78-.001-.093.033-.122.605-.122 2.407 0 1.3.029 2.392.065 2.428s.387.065.78.065h.715v-2.427zm63.504-.006c0-1.338-.033-2.451-.073-2.473s-.369-.02-.732.006l-.658.046v4.855h1.463v-2.433zm3.879-.016l.026-2.4-1.099-.053c-.605-.029-1.132-.033-1.172-.008-.092.056-.097 4.756-.005 4.848.037.037.553.056 1.146.041l1.078-.027.026-2.4zm-102.159-.038v-2.341h-4.39l-.026 2.285c-.02 1.763.002 2.304.098 2.365.068.044 1.068.069 2.221.056l2.097-.024zm5.365 0v-2.341l-3.707-.038.026 2.262c.014 1.244.046 2.318.071 2.387.035.096.454.118 1.828.098l1.782-.027zm4.655-.003l-.028-2.393-2.871.054-.026 2.241c-.014 1.233-.005 2.297.021 2.366.036.093.413.124 1.489.124h1.442zm4.444-.025l.026-2.368-2.784.054-.026 2.241c-.014 1.233-.004 2.299.022 2.368.037.097.36.121 1.392.1l1.343-.027.026-2.368zm4.364.027v-2.341l-2.585-.054v2.328c0 1.28.031 2.358.068 2.396s.619.056 1.293.041l1.225-.027zm4.438-.003v-2.393l-2.683.054-.026 2.241c-.014 1.233-.005 2.297.021 2.366.035.092.39.124 1.368.124h1.32zm.832 2.216c-.03-.03-.109 0-.175.067-.096.096-.084.108.055.055.096-.037.15-.091.12-.121zm3.598.117c.086-.033.123-.108.083-.171-.096-.151-.097-.167-.111-2.504l-.012-2.051-2.683.054-.026 2.241c-.014 1.233-.005 2.297.021 2.366.035.092.379.124 1.311.124.695 0 1.332-.027 1.417-.059zm78.876-2.334v-2.393l-2.683.054-.049 2.317c-.032 1.499-.014 2.331.049 2.358.054.023.679.044 1.39.049l1.293.008v-2.393zm4.39.003v-2.39h-2.634v4.78h2.634zm4.341 0v-2.341h-2.536l-.026 2.241c-.014 1.233-.004 2.299.022 2.368.037.097.342.121 1.294.1l1.246-.027zm4.536 0v-2.39h-2.731v2.325c0 1.279.029 2.354.065 2.39s.65.065 1.366.065h1.301zm4.634 0v-2.341l-1.439-.027c-.791-.015-1.443.007-1.449.049s-.027 1.119-.048 2.395l-.038 2.319 2.974-.054zm5.316 0v-2.39h-3.609v2.325c0 1.279.029 2.354.065 2.39s.848.065 1.805.065h1.74zm6.123-.026l.026-2.367-4.344.053-.026 2.241c-.014 1.233-.004 2.298.022 2.367.038.099.508.12 2.172.1l2.124-.026zm-51.58-2.364c0-.054-.019-.098-.043-.098s-.07.044-.103.098-.014.098.043.098.103-.044.103-.098zm-37.969-4.512l-.026-3.048-.681-.029c-.374-.016-.78-.004-.902.026l-.222.056v2.957c0 1.626.029 2.986.065 3.022s.453.065.928.065h.863zm40.58 0l-.026-3.048h-1.658l-.08 1.366c-.044.751-.05 2.123-.014 3.048l.066 1.683h1.738zm-48.506 2.731c.029-.121.041-1.471.026-3l-.027-2.78-.683-.03c-.376-.017-.826-.003-1.001.029l-.318.059.052 5.795.878.055c.483.03.91.063.949.073s.095-.08.125-.201zm4.389-2.805v-2.975l-1.122-.028c-.617-.016-1.221-.004-1.341.026l-.219.055v2.916c0 2.244-.028 2.927-.122 2.962-.067.025.537.04 1.341.033l1.463-.013zm48.507.024l-.026-3h-2.536l-.026 2.877c-.014 1.582-.005 2.932.021 3 .035.09.386.123 1.32.123h1.273zm3.714 2.85c.018-.017.051-1.306.074-2.864.047-3.31.143-3.06-1.156-3.015l-.804.028-.027 2.78c-.015 1.529-.005 2.87.021 2.98.046.188.105.198.954.16.498-.022.92-.054.939-.071zm-101.444-.021l.429-.048-.062-1.525c-.034-.839-.062-2.128-.063-2.866l-.001-1.341h-5.95v2.861c0 1.574.03 2.892.068 2.929.075.075 4.896.065 5.58-.011zm6.4-2.853v-2.878h-4.39l-.052 5.702 1.684.027 2.221.027h.537zm4.318 2.862l1.099-.063-.052-5.677h-3.609l-.026 2.779c-.014 1.528-.005 2.834.021 2.902.054.141.836.159 2.567.059zm10.145-2.889l.026-2.899h-2.832v5.746l.61.032c.335.018.961.03 1.39.026l.78-.006.026-2.899zm8.583 2.861l.219-.005v-5.755h-2.613l-.067 1.78c-.037.979-.052 2.263-.035 2.853l.032 1.073.488.049c.268.027.773.04 1.122.029l.854-.024zm4.658-2.834v-2.878h-2.731l-.026 2.768c-.019 1.993.006 2.807.087 2.905.089.107.39.131 1.392.109l1.278-.027zm4.025-.024l.026-2.902h-2.344v2.861c0 1.574.031 2.892.068 2.929s.553.056 1.146.041l1.078-.027zm3.024-.004l.026-2.906-1.515.057-.026 2.779c-.014 1.528-.004 2.836.023 2.906.036.093.243.12.758.099l.709-.029.026-2.906zm63.527.028v-2.926h-1.463v2.861c0 1.574.029 2.891.065 2.926s.365.065.732.065h.667zm3.879-.027l.026-2.905-2.393.055.018 2.767c.01 1.522.042 2.829.071 2.905.042.11.276.133 1.152.111l1.099-.028zm4.39.003l.026-2.902h-2.734v2.861c0 1.574.03 2.892.068 2.929s.641.056 1.341.041l1.274-.027zm3.949 2.862l.463-.008v-5.755h-2.634v5.742l.268.031a8.26 8.26 0 0 0 .854.015l1.049-.024zm9.023.001l.317-.009v-5.755h-2.731v2.861c0 1.574.03 2.891.066 2.927s.508.048 1.049.026l1.3-.05zm10.244-2.863l.026-2.902h-3.612v5.747l.707.035c.389.019 1.19.032 1.78.029l1.073-.006.026-2.902zm4.681 2.854l1.488-.001v-5.755h-4.39v2.861c0 1.574.033 2.895.073 2.937s.358.049.707.017 1.303-.059 2.122-.059zm9.145-2.83v-2.878l-5.902-.052-.009.416-.086 5.332.462.034c.254.019 1.604.032 2.999.03l2.536-.005v-2.878zm-133.592-.049v-2.878h-2.926v5.755h2.926zm8.877 0v-2.878h-2.634v5.755h2.634zm96.452.024l-.026-2.853-2.585-.054v5.761h2.637zm9.144-.024v-2.829l-2.878-.054-.004.759v4.931c.002.042.651.064 1.442.049l1.439-.027v-2.829zm-69.916-8.023l-.025-4.073h-1.951v7.901l.829.11 1.001.122c.162.011.17-.224.146-4.061zm24.02 3.887l.439-.06v-7.899h-1.951l-.051 8.147.562-.064 1.001-.124zm-98.689-.276c.271-.147.713-.176 3.336-.219 2.335-.039 3.022-.078 3.014-.172-.005-.067-.016-1.724-.024-3.682l-.015-3.561h-6.731v3.902l.054 3.902c.029 0 .194-.076.366-.169zm70.962-3.757l-.025-3.926h-2.634l-.051 7.744.416.037c.229.021.844.045 1.368.054l.952.017zm31.859 3.863l.747-.063-.051-7.726h-2.634l-.051 7.853h.62a19.82 19.82 0 0 0 1.368-.063zm69.417-3.695l-.061-3.902c-.047-.123-.538-.144-3.355-.144h-3.3l-.031 1.049c-.017.577-.031 2.234-.031 3.682v2.634l3.024.05c2.604.043 3.065.073 3.317.216.161.091.326.167.368.17s.072-1.687.069-3.754zm-105.788-.241v-3.853l-.732-.006c-1.186-.01-1.079-.405-1.05 3.883l.026 3.723.244.07c.134.038.529.062.878.053l.634-.017v-3.853zm40.507 3.824c.095-.032.122-.885.122-3.824s-.027-3.791-.122-3.818c-.067-.019-.447-.035-.845-.035-.72 0-.724.001-.808.293s-.002 7.246.087 7.395c.047.077 1.33.07 1.565-.01zm-48.391-3.666c.01-1.978-.022-3.701-.071-3.829-.082-.217-.137-.232-.863-.232-.426 0-.844.027-.929.059-.137.053-.154.479-.154 3.8v3.741l.707.036c.389.02.839.033 1 .029l.293-.007.017-3.597zm4.398-.177l.026-3.774-1.245-.03c-.685-.016-1.3.008-1.367.055-.094.066-.122.933-.122 3.772 0 2.857.027 3.698.122 3.737.067.028.671.042 1.341.033l1.219-.018zm48.618 3.738c-.106-.067-.125-.776-.102-3.753.018-2.263-.007-3.699-.065-3.745-.051-.041-.653-.061-1.337-.044l-1.244.03v3.734c0 2.054.029 3.763.065 3.799s.683.064 1.439.064c.787-.001 1.318-.037 1.244-.084zm3.567-.064c.093-.03.108-.847.065-3.676l-.092-3.759c-.04-.128-1.441-.179-1.743-.063-.137.053-.154.478-.154 3.788 0 2.051.03 3.759.066 3.795.064.064 1.615-.007 1.858-.085zm-67.318-3.728l.013-3.731-1.232.011c-.678.006-1.649.043-2.159.082l-.927.071 1.61.032v3.593c0 1.976.03 3.623.068 3.661s.641.056 1.341.041l1.274-.027zm4.036.024v-3.756h-2.341v7.511h2.341zm3.024-.004v-3.76l-1.512.057-.026 3.609.021 3.731c.032.083.283.122.782.122h.735zm63.504 0v-3.76l-1.512.057-.02 3.609.021 3.731c.028.083.275.122.776.122h.735zm3.879-.023l.026-3.734-2.392.055-.032 3.592c-.018 1.976-.007 3.656.023 3.734.044.115.269.137 1.203.115l1.148-.028zm4.39.101l.026-3.634 1.607-.032-.927-.071c-1.215-.093-3.13-.092-3.804.001l-.537.074.927.028v3.593c0 1.976.03 3.623.068 3.661s.641.056 1.341.041l1.274-.027.026-3.634zm-112.668-.098l-.026-3.682h-5.853l-.026 3.56.021 3.682c.036.094.718.122 2.978.122h2.931zm6.146.049l.026-3.585.267-.011c.178-.007.113-.04-.195-.1-.254-.049-1.373-.077-2.487-.062l-2.026.026-.026 3.56.022 3.684c.037.097.531.118 2.22.098l2.173-.026.026-3.585zm5.33 1.585l-.024-3.685-.015-1.685-3.56.053-.026 3.56.022 3.685c.037.096.455.119 1.83.098l1.782-.027-.009-2zm4.643-1.658v-3.707h-2.926v7.414h2.926zm4.487-.003v-3.709l-2.78.054-.051 7.365h2.831zm4.39.003v-3.707h-2.634v7.414h2.634zm4.39 0v-3.707h-2.634v7.414h2.634zm87.696-.003v-3.71l-2.683.054-.031 2.097c-.017 1.154-.001 2.811.035 3.682l.066 1.585h2.613zm4.366.027l-.026-3.682-2.585-.054v7.419h2.636zm4.51-.024v-3.707h-2.731v7.414h2.731zm4.634 0v-3.658l-2.878-.054v7.424l2.878-.054zm5.316-.002v-3.709l-3.56.053-.051 7.365h3.612zm6.146.002v-3.707l-2.073.006c-1.14.003-2.248.042-2.463.086-.312.064-.336.083-.122.092l.268.011v3.544c0 1.949.029 3.574.065 3.609s1.023.065 2.195.065h2.13v-3.707zm7.661.244l-.036-3.684-.039-.27-5.782.052-.051 7.368 5.904-.052.004-3.414zm-115.135-3.825a1.39 1.39 0 0 0-.439 0c-.121.023-.022.042.219.042s.34-.019.219-.042zm26.07-3.841v-1.992l-.829-.029c-1.342-.047-1.224-.246-1.191 2.021l.028 1.952.898.031c.494.017.942.026.996.02.061-.007.098-.748.098-2.003zm3.463.004v-2.052l-1.707.056-.027 1.899c-.015 1.045-.005 1.955.021 2.024.034.088.294.125.88.125h.832zm17.266 0v-2.052l-1.707.056-.027 1.899c-.015 1.045-.005 1.955.021 2.024.034.088.294.125.88.125h.832zm-89.061-.046v-2.001l-6.682.051-.053 3.951h6.735zm7.658.001v-1.951l-5.902-.052v4.005l5.902-.052zm6.146 0v-1.951h-4.39l-.027 1.85c-.015 1.018-.005 1.907.022 1.977.038.1.51.121 2.221.101l2.173-.026v-1.951zm5.316 0v-2h-3.609v1.935c0 1.064.029 1.964.065 2s.848.065 1.805.065h1.74zm4.66-.024l.026-1.975h-2.93v1.935c0 1.064.03 1.965.068 2.002s.685.055 1.439.041l1.371-.027.026-1.975zm4.487-.003l.026-1.978-2.784.054-.027 1.85c-.015 1.018-.005 1.908.022 1.978.038.099.356.122 1.392.101l1.343-.027.026-1.978zm4.363.027v-1.951h-2.536l-.027 1.85c-.015 1.018-.005 1.908.022 1.978.038.098.338.122 1.295.101l1.246-.027zm4.069 1.938l.362-.06.056-3.878h-2.683v1.935c0 1.064.029 1.964.065 2 .081.081 1.712.084 2.199.003zm4.808-1.943v-1.946h-2.634l-.027 1.85c-.015 1.018-.007 1.901.016 1.962.03.077.444.107 1.344.096l1.301-.016zm3.873 1.93c.167-.044.177-.174.152-1.961l-.026-1.915h-2.244l-.053 3.841.368.034c.563.053 1.602.053 1.803.001zm3.176-1.954l.026-1.979-1.516.057-.027 1.895c-.015 1.106.012 1.918.065 1.951s.391.056.758.056h.667l.026-1.979zm8.07.029v-1.951h-2.634l-.026 1.919c-.024 1.757-.012 1.922.143 1.951.093.018.698.032 1.343.032h1.174zm3.538-.024l.026-1.975h-1.76v1.935c0 1.064.031 1.966.069 2.003s.422.056.854.041l.785-.028zm4.461.024v-1.951h-2.634l-.027 1.85c-.015 1.018-.005 1.908.022 1.978.038.098.347.122 1.344.101l1.294-.027zm.341 1.902c0-.054-.019-.098-.043-.098s-.07.044-.103.098-.014.098.043.098.103-.044.103-.098zm27.85-.024c.024-.067.055-.962.07-1.989l.027-1.867-2.097-.031v4.009h.979c.695 0 .991-.035 1.021-.122zm4.389-1.878v-1.951h-2.634l-.027 1.85c-.015 1.018-.005 1.908.022 1.978.038.098.347.122 1.344.101l1.294-.027zm3.512 0v-1.951h-1.658l-.027 1.85c-.015 1.018-.004 1.908.023 1.979.037.096.257.122.856.101l.806-.028zm4.329 1.91c.07-.043.11-.716.118-1.963l.012-1.898h-2.606l-.027 1.85c-.015 1.018-.007 1.901.016 1.962.047.122 2.295.166 2.486.048zm7.013-1.958l.026-1.96-1.516.057-.027 1.895c-.019 1.324.007 1.916.083 1.963.06.037.401.054.758.036l.649-.031zm3.268 1.995l.66-.065-.053-3.833h-2.244l-.026 1.919c-.024 1.77-.013 1.922.146 1.955.377.078.886.086 1.516.024zm4.997-1.947v-1.951l-2.683-.054v1.937c0 1.066.018 1.956.041 1.978s.626.041 1.341.041h1.301zm4.416-.027l.026-1.978-2.687.054v3.802l.293.058c.161.032.754.054 1.317.05l1.024-.008.026-1.978zm4.363.027v-1.951h-2.536l-.027 1.85c-.015 1.018-.005 1.908.022 1.978.038.098.338.122 1.295.101l1.246-.027zm4.536 0v-2h-2.731v1.935c0 1.064.029 1.964.065 2s.65.065 1.366.065h1.301zm4.634 0v-1.951l-2.878-.054v1.937c0 1.066.03 1.968.068 2.005s.685.055 1.439.041l1.371-.027zm5.316-.002v-2.002l-3.56.053-.018 1.897c-.01 1.043.004 1.932.03 1.975s.836.078 1.799.078h1.75zm6.146 0v-2.002l-4.341.053-.027 1.85c-.015 1.018-.005 1.907.021 1.975.037.096.54.125 2.197.125h2.149zm7.658.148c0-.993-.016-1.882-.036-1.977-.034-.161-.232-.17-2.927-.146l-2.89.026-.025 1.853c-.014 1.019-.004 1.909.022 1.977.037.096.681.118 2.952.098l2.905-.026.001-1.805zm8.447 1.731c.017-.219.018-1.073.004-2.487l-.014-1.39h-6.633v3.999h3.317c2.583 0 3.319-.027 3.326-.122zM77.666 157.95a63.88 63.88 0 0 1-.058-1.954l-.006-.808-1.902.056-.053 3.853h2.071l-.052-1.146zm56.612-.808v-1.954l-1.902.056-.053 3.853h1.955zm-42.775-1.849c.034-.055-.005-.072-.092-.038-.169.065-.2.135-.06.135.05 0 .119-.043.151-.096zm55.82-.06c-.032-.032-.117-.036-.187-.008-.078.031-.055.054.059.059.103.004.16-.019.128-.051zm-43.332-1.282c.114-.563.202-.742.457-.932.23-.171.285-.179.43-.059.129.107.176.11.208.016.129-.383.691.087.852.711.109.423.154.48.356.458l.817-.098.585-.072.053-3.432-1.539-.053a39.59 39.59 0 0 0-2.758.009l-1.219.062-.027 1.651c-.02 1.256.003 1.67.098 1.73.068.043.322.083.563.087s.527.046.634.092c.332.143.433.107.489-.171zm-78.599-1.658l-.027-1.634-3.122-.027c-1.717-.015-3.22-.003-3.341.026-.216.053-.219.077-.219 1.609v1.556l1.049.031a221.48 221.48 0 0 0 3.368.052l2.319.021zm7.659 1.317c.038-.239.023-2.013-.024-2.928-.002-.041-1.31-.063-2.906-.049l-2.902.026-.053 3.268H33zm6.193-1.317l-.027-1.634-2-.028c-1.1-.015-2.098-.003-2.219.026-.216.053-.219.078-.219 1.597 0 .848.029 1.572.065 1.608s1.046.065 2.246.065h2.181zm5.29-.024v-1.658h-1.65c-.908 0-1.72.027-1.805.059-.132.051-.154.284-.154 1.593 0 .844.029 1.563.065 1.599s.848.065 1.805.065h1.74zm4.66.024l-.027-1.634h-2.829l-.053 3.268h2.936zm4.529-.018l.029-1.652-2.829.035-.027 1.508c-.015.829-.005 1.565.021 1.634.036.095.388.126 1.413.126h1.364zm.321 1.554c-.033-.054-.113-.097-.176-.096-.07.001-.058.039.03.096.187.121.221.121.146 0zm3.999-1.561v-1.61h-2.536l-.027 1.508c-.015.829-.005 1.566.022 1.637.038.1.333.123 1.295.102l1.246-.027zm4.438-.003v-1.661l-2.585.054-.053 3.268h2.639zm4.438.003v-1.61h-2.634l-.027 1.508c-.015.829-.005 1.566.022 1.637.038.1.342.123 1.344.102l1.294-.027zm4.031.78a16.86 16.86 0 0 0-.033-1.634l-.064-.805h-1.008c-.554 0-1.066.022-1.137.05-.102.039-.124.369-.103 1.536.015.818.047 1.543.071 1.612.034.094.318.118 1.144.098l1.099-.028zm3.041-.785V150.6l-1.61.035.029 1.57c.02 1.087.065 1.593.146 1.644.064.041.413.075.776.076l.658.001v-1.663zm3.609 0v-1.663l-2 .032.027 1.525c.015.839.046 1.58.07 1.647.031.086.318.122.973.122h.93zm4.438.005v-1.61h-2.634l-.027 1.508c-.015.829-.005 1.566.022 1.637.038.1.342.123 1.344.102l1.294-.027v-1.61zm3.538-.024l.027-1.634h-1.761v1.593c0 .876.031 1.624.069 1.662s.422.056.854.041l.785-.028.027-1.634zm4.39 1.593c.097-.006.118-.362.098-1.593l-.027-1.585-1.024-.027c-.563-.015-1.397.012-1.853.06-.699.073-.749.089-.317.1l.512.013v3.015l.61.029c.508.024 1.487.018 2.002-.012zm3.558.002l.268-.009v-3.219h-2.049v1.602c0 1.435.017 1.606.167 1.635s.654.025 1.613-.008zm3.56.004c.092-.01.122-.409.122-1.627v-1.613l-1.707.056-.036 3.254.75-.028.872-.042zm3.487-1.623v-1.658h-1.561l-.027 1.557c-.015.856-.005 1.615.023 1.687.037.096.246.123.807.101l.757-.028zm10.438 0v-1.658h-1.561l-.027 1.557c-.015.856-.004 1.615.023 1.687.037.096.246.123.807.101l.757-.028zm3.441.024l.027-1.634h-1.635l-.052.756c-.073 1.062-.019 2.376.101 2.45.056.034.423.062.817.062h.716zm3.732 1.523c.061-.061.089-.675.072-1.604l-.027-1.504-2-.056v1.605c0 .999.037 1.617.099 1.637.234.077 1.765.012 1.855-.078zm3.728.065l.756-.003v-3.024l.512-.013c.432-.011.382-.027-.317-.1-.456-.048-1.29-.075-1.853-.06l-1.024.027-.027 1.508c-.015.829-.007 1.561.018 1.626.031.08.227.106.612.081.312-.021.907-.039 1.323-.041zm4.209.013c.028-.045.056-.78.064-1.634l.014-1.553-1.775-.056v1.597c0 .878.029 1.626.065 1.662.094.094 1.573.08 1.632-.016zm4.48-.09c.038-.143.021-2.844-.019-3.076-.007-.042-.595-.064-1.306-.049l-1.293.027-.027 1.508c-.015.829-.005 1.565.021 1.634.036.094.369.126 1.313.126 1.122 0 1.27-.019 1.309-.171zm3.695-1.486l.029-1.666-1.951.055-.098 3.246 1.991.031zm3.177-.03l.027-1.638-1.517.057-.027 1.508c-.015.829-.004 1.567.023 1.638.037.096.236.123.759.102l.709-.029zm3.924.048c.057-1.862.185-1.702-1.317-1.658l-.975.029-.027 1.508c-.015.829-.005 1.566.023 1.637.038.099.306.123 1.149.102l1.099-.028zm4.39-.005l-.049-1.625h-2.634l-.027 1.508c-.015.829-.005 1.566.023 1.638.039.101.354.127 1.393.117l1.343-.013zm4.341-.015v-1.61h-2.634l-.027 1.508c-.015.829-.005 1.566.022 1.637.038.1.342.123 1.344.102l1.294-.027zm4.438-.017l.049-1.627-2.634.035-.027 1.508c-.015.829-.005 1.566.022 1.637.038.1.333.123 1.295.102l1.246-.027zm4.487.015v-1.661l-2.683.054-.053 3.268h2.736zm4.634.003v-1.61h-2.829l-.054 3.273 2.882-.054zm5.294.024l-.027-1.634h-3.512l-.027 1.508c-.015.829-.005 1.565.021 1.634.037.097.46.126 1.81.126h1.761zm6.146 0l-.027-1.634h-4.292l-.053 3.268h4.399zm7.631-.024v-1.658h-5.755l-.017.61c-.04 1.404-.044 2.565-.009 2.634.021.04 1.33.073 2.91.073h2.872v-1.658zm6.864 1.594l1.627-.064-.053-3.139h-6.536l-.053 3.268h1.694c.932 0 2.426-.029 3.321-.064zM67.43 150.746c-.032-.032-.117-.036-.187-.008-.078.031-.055.054.059.059.103.004.16-.019.128-.051zm15.465-.005a.56.56 0 0 0-.293-.004c-.095.025-.041.047.12.049s.239-.018.173-.045zm.779-.001c-.067-.027-.177-.027-.244 0s-.012.049.122.049.189-.022.122-.049zm42.968.006c-.032-.032-.117-.036-.187-.008-.078.031-.055.054.059.059.103.004.16-.019.128-.051zm.78 0c-.032-.032-.117-.036-.187-.008-.078.031-.055.054.059.059.103.004.16-.019.128-.051zm15.51 0c-.032-.032-.117-.036-.187-.008-.078.031-.055.054.059.059.103.004.16-.019.128-.051zm-37.405-1.158c.189-.079.767-.173 1.283-.21l.939-.066-.055-1.97-2.622-.026c-1.891-.019-2.66.006-2.759.088s-.131.331-.109 1.001l.028.888 1.075.105c.591.057 1.162.155 1.268.217.263.153.544.145.952-.026zm-4.905-1.271v-.927h-1.658v.862c0 .474.029.891.065.927s.409.065.829.065h.764zm10.417-.024l.028-.902h-1.666v.862c0 .474.031.893.069.93s.4.056.805.041l.736-.028zm-85.626.022v-.831l-6.78.013.063 1.649h6.716v-.831zm7.626.038c.019-.475-.008-.808-.067-.831s-1.371-.026-2.926-.012l-2.828.026-.057 1.61h5.846zm6.206-.062l.028-.807-4.446.052-.029.673c-.016.37-.006.733.022.807.042.109.457.129 2.224.107l2.173-.026zm5.288.024v-.831l-3.56.053-.029.673c-.016.37-.006.732.021.805.04.104.423.132 1.809.132h1.759zm4.682.002v-.829h-2.926v1.658h2.926zm4.487-.003c0-.645-.032-.845-.145-.888-.08-.031-.705-.018-1.39.027l-1.245.083-.057 1.61h2.837v-.832zm4.369-.021l-.028-.854-1.073-.028c-1.579-.042-1.512-.082-1.512.908v.827H58.1zm4.39 0l-.028-.854h-2.536l-.056 1.707h2.649zm4.459-.024v-.829h-2.634l-.056 1.713 2.69-.054zm3.983.561a28.66 28.66 0 0 1-.024-.881l-.008-.564-2.195.055-.029.722c-.016.397-.006.781.021.854.038.099.319.131 1.151.131h1.1zm3.12-.219l-.02-.854-.01-.366h-.663c-.386 0-.712.049-.78.117-.126.126-.167 1.459-.048 1.578.038.038.398.056.8.041l.731-.028-.009-.488zm3.579-.341v-.878h-.858c-.538 0-.902.044-.975.117-.123.123-.168 1.458-.052 1.574.036.036.475.065.975.065h.91zm4.438 0v-.829h-2.634l-.056 1.6.565.029c.311.016.916.029 1.345.029h.78zm3.512 0v-.829h-1.658l-.028.797c-.033.921-.07.89 1.052.871l.634-.01zm4.517.198c.053-1.137.12-1.086-1.373-1.054l-1.29.027-.029.722c-.016.397-.006.783.022.856.041.106.32.128 1.346.107l1.294-.027zm3.677-.198v-.829h-1.951l-.029.722c-.016.397-.006.783.023.857.04.104.265.128 1.004.107l.953-.028zm3.463-.004v-.882l-1.707.056-.056 1.707h1.763zm17.266-.001v-.883l-1.807.034.177 1.732h1.63zm3.756.005v-.829h-1.951l-.029.722c-.016.397-.006.783.023.857.04.104.265.128 1.004.107l.953-.028v-.829zm4.39 0v-.829h-2.634l-.029.722c-.016.397-.006.783.022.856.041.106.32.128 1.346.107l1.294-.027v-.829zm3.198.812l.37-.05-.056-1.591h-1.658l-.029.722c-.016.397-.006.784.023.858.054.14.594.164 1.351.061zm4.63-.021c.087-.008.122-.248.122-.843v-.832l-2.585.054-.029.722c-.016.397-.008.776.017.842.033.087.36.112 1.2.093l1.276-.037zm3.808-.767l-.028-.854h-1.853l-.029.722c-.016.397-.006.781.021.854.037.097.292.131.984.131h.934zm3.219 0l-.028-.854h-1.463l-.029.722c-.016.397-.006.781.021.854.036.094.261.131.789.131h.738zm3.903.174c.053-1.122.092-1.087-1.178-1.055l-1.095.028-.029.722c-.016.397-.006.783.023.857.04.105.288.128 1.151.107l1.099-.028.03-.631zm4.36-.198v-.829h-2.634l-.029.722c-.016.397-.006.783.022.856.041.106.32.128 1.346.107l1.294-.027zm4.438.051c0-.99.067-.95-1.512-.908l-1.073.028-.074.732c-.04.402-.053.786-.027.854.034.089.4.122 1.366.122h1.32zm4.39 0c0-.99.067-.95-1.512-.908l-1.073.028-.056 1.707h2.641zm4.487.008v-.819l-1.216-.07c-.669-.039-1.284-.044-1.366-.013-.118.045-.149.232-.149.889v.832h2.731zm4.647.234a5.48 5.48 0 0 0-.032-.805l-.046-.268h-2.813v1.664l2.878-.054zm5.336-.219l-.016-.805h-3.578l-.029.673c-.016.37-.006.732.021.805.04.104.427.132 1.834.132h1.783zm6.112-.024v-.829h-4.39v.764c0 .42.029.793.065.829s1.023.065 2.195.065h2.13zm7.609 0v-.829h-2.867c-2.525 0-2.874.018-2.926.154-.08.209-.075 1.358.006 1.439.036.036 1.353.065 2.926.065h2.861v-.829zm8.487 0v-.829h-6.633v1.658h6.633zm-83.769-2.061l.268-.051.004-.895c.003-.511.063-1.06.142-1.281.076-.213.114-.41.085-.439-.085-.085-5.865-.06-5.95.025-.043.043-.024.163.041.267.073.117.118.579.118 1.209 0 .636.04 1.045.107 1.086.311.192 4.278.253 5.185.079zm-10.316-1.402v-1.219l-.631-.03c-1.126-.053-1.087-.099-1.055 1.227l.027 1.144.585.049c.322.027.695.049.829.049h.244zm3.464.219c.001-.577.028-1.147.06-1.268.058-.216.044-.219-.83-.219h-.889v1.203c0 .662.029 1.232.065 1.268s.409.065.829.065h.764l.001-1.049zm10.388-.219v-1.219l-1.735-.057.062.516c.034.284.062.858.063 1.276l.001.76 1.61-.057v-1.219zm3.1 1.18l.369-.009-.055-2.39h-1.561l-.028 1.116c-.015.614-.007 1.169.018 1.235.029.075.2.108.467.088.232-.017.587-.035.79-.04zm-20.339-1.204l-.027-1.195h-1.951l-.028 1.114c-.021.826.005 1.135.098 1.193.069.044.533.08 1.031.081l.905.001-.027-1.195zm24.4 1.059c.074-.09.103-.498.085-1.195l-.028-1.059h-1.951l-.064 1.024c-.035.563-.043 1.101-.018 1.195.039.147.171.171.954.171.658 0 .939-.038 1.021-.136zm-92.76-1.085v-1.123l-6.682.051-.028.969c-.015.533-.006 1.027.021 1.097.04.103.708.129 3.369.129h3.32zm7.664.779c.048-.254.013-1.516-.051-1.877-.003-.014-1.327-.014-2.944 0l-2.939.026.019 1.019c.01.56.041 1.054.068 1.097s1.339.079 2.916.079h2.867zm6.166-.802l-.027-1.146-1.959-.028c-1.161-.017-2.065.012-2.219.071-.26.099-.26.099-.26 1.174v1.075h4.493zm5.289-.024v-1.171h-1.701c-.936 0-1.723.036-1.751.08s-.057.485-.067.981c-.012.612-.061.945-.152 1.035-.192.192.014.216 1.988.231l1.683.013zm4.601 1.121c.102-.039.119-.288.081-1.146l-.049-1.097h-2.829l-.028 1.065c-.021.786.005 1.086.098 1.145.135.086 2.513.115 2.727.033zm4.52-1.121v-1.122l-1.171-.028c-1.725-.042-1.61-.123-1.61 1.144 0 .758.035 1.078.122 1.115.067.028.693.043 1.39.033l1.268-.019zm4.327 1.082c.084-.052.11-.382.091-1.138l-.028-1.065h-2.536l-.028 1.018c-.015.56-.006 1.074.02 1.143.036.093.348.124 1.205.121.636-.003 1.211-.038 1.276-.078zm8.967-1.116l-.028-1.087h-2.634l-.055 2.188.954.028c.525.015 1.142.012 1.372-.006l.418-.034-.028-1.087zm18.604.034v-1.122l-.681-.029c-1.123-.048-1.08-.093-1.047 1.074.015.552.047 1.061.072 1.13.032.092.259.118.85.098l.806-.028zm4.438-.003v-1.173l-2.585.054-.028 1.018c-.015.56-.006 1.075.021 1.146.037.097.359.129 1.321.129h1.271v-1.173zm32.63.003v-1.122h-2.634l-.028 1.018c-.015.56-.005 1.077.022 1.149.04.103.33.125 1.345.104l1.294-.027zm3.512 0v-1.122h-1.658l-.028 1.018c-.015.56-.005 1.077.023 1.15.038.1.248.126.857.104l.806-.028zm23.634 1.08l.418-.007-.055-2.195-1.219-.024c-.671-.013-1.274.011-1.341.055-.092.06-.106.335-.059 1.118l.064 1.039.741.028a11.76 11.76 0 0 0 .888.011c.08-.009.334-.02.564-.024zm4.701-.006c.07-.044.098-.433.08-1.131l-.028-1.065h-2.536l-.028 1.018c-.015.56-.006 1.075.021 1.145.037.096.336.124 1.217.114.642-.007 1.216-.043 1.275-.08zm4.539-1.075v-1.122h-2.634l-.028 1.018c-.015.56-.007 1.073.019 1.14.035.091.38.118 1.345.104l1.298-.018zm4.606 1.049c.072-.094.101-1.709.038-2.149-.006-.042-.636-.064-1.401-.049l-1.39.027-.028 1.018c-.015.56-.006 1.075.021 1.146.069.179 2.622.185 2.759.007zm5.344-1.049v-1.122l-1.7-.027c-1.295-.02-1.719.003-1.779.098-.134.212-.099 2.101.04 2.158.067.028.868.042 1.78.033l1.658-.018zm6.194.053v-1.117l-.317-.058c-.174-.032-1.151-.045-2.17-.029l-1.853.029-.055 2.292h4.396zm7.609.093c0-.753.032-1.025.122-1.027.07-.002.052-.044-.043-.099-.101-.059-1.274-.086-3.024-.07l-2.859.026-.028.969c-.015.533-.006 1.027.021 1.097.039.103.633.129 2.93.129h2.881zm8.487-.098v-1.122h-6.633v2.244h6.633zm-128.784-.073l-.028-1.097h-2.536l-.055 2.195h2.647zm8.41-.028v-1.125l-2.195.055-.055 2.195h2.25zm3.17.003v-1.073l-.667-.029c-.408-.018-.721.015-.805.085-.101.084-.138.365-.138 1.061 0 .521.031.978.069 1.016s.4.056.805.041l.736-.028v-1.073zm3.56 0v-1.122h-.858c-.538 0-.902.044-.975.117-.125.125-.171 1.943-.052 2.062.036.036.475.065.975.065h.91zm4.466.024l-.028-1.097h-2.634l-.055 2.195h2.744zm48.516.829a9.12 9.12 0 0 0 .01-.512l-.024-1.469-2.585.054-.055 2.195h2.64zm3.672-.829l-.028-1.097h-1.853l-.028.969c-.015.533-.006 1.027.021 1.097.036.094.299.129.982.129h.933zm3.219 0l-.028-1.097h-1.463l-.055 2.195h1.574zm3.874-.024v-1.073h-2.244l-.055 2.201 2.299-.055zm4.417.024l-.028-1.097h-2.634l-.055 2.195h2.744zm-39.925-2.303c.215-.058 1.422-.132 2.683-.165s2.348-.077 2.417-.098c.095-.03.118-.358.098-1.382l-.027-1.343-3-.049c-1.65-.027-4.349-.027-5.999 0l-3 .049v2.731l2.195.065c2.368.071 3.09.132 3.317.283.162.108.724.069 1.316-.091zm-8.633-1.686l-.049-1.302-.683-.025c-.376-.014-.736.009-.8.052-.079.051-.127.494-.146 1.342l-.029 1.265.732.049c.402.027.797.02.878-.015.123-.054.139-.27.098-1.366zm17.266.066c0-1.094-.024-1.308-.154-1.358-.287-.11-1.392-.065-1.469.061-.041.066-.068.668-.061 1.338.011.988.041 1.228.16 1.27.081.029.457.038.835.02l.688-.032zm-89.061-.003v-1.317h-3.248c-2.396 0-3.279.031-3.365.117-.078.078-.117.514-.117 1.317v1.2h6.731zm7.658 0v-1.268h-5.853l-.028 1.165c-.015.641-.005 1.223.022 1.294.04.104.617.124 2.954.103l2.905-.026zm6.173.024l-.027-1.293-4.487-.033.027 1.187c.015.653.046 1.242.07 1.309.033.093.571.122 2.244.122h2.201zm5.289-.027v-1.319l-3.463.053-.054 2.585h3.517zm4.634.002v-1.268h-2.829l-.028 1.165c-.015.641-.005 1.224.022 1.295.039.102.351.124 1.442.103l1.392-.027v-1.268zm4.536-.003v-1.32l-2.78.054-.028 1.165c-.015.641-.006 1.222.021 1.293.037.097.38.128 1.418.128h1.369v-1.32zm4.39 0v-1.32l-2.585.054-.028 1.165c-.015.641-.006 1.222.021 1.293.037.096.363.128 1.32.128h1.271v-1.32zm4.398 1.279c.022-.022.027-.615.011-1.317l-.03-1.277h-2.623v1.252c0 .689.029 1.281.065 1.317.069.069 2.508.093 2.577.025zm4.43-1.277v-1.268h-2.634l-.028 1.165c-.015.641-.005 1.224.022 1.295.039.102.334.124 1.345.103l1.294-.027zm3.951-.003v-1.32l-2.195.055-.028 1.165c-.015.641-.006 1.222.021 1.293.036.094.329.128 1.125.128h1.076v-1.32zm3.17.003v-1.268l-1.501-.057-.03 1.272c-.018.784.008 1.289.068 1.315.054.024.405.034.78.024l.683-.019zm3.572.707l.028-1.146c.027-.912.065-.878-1.002-.878h-.94l.027 1.195c.015.657.046 1.25.07 1.317.03.085.307.122.924.122h.881l.012-.61zm4.495-.72l-.03-1.31-2.672.054-.028 1.212c-.021.904.004 1.232.098 1.29.069.043.696.075 1.393.071l1.268-.007-.03-1.31zm3.471-.012l.027-1.293h-1.762v1.252c0 .689.031 1.283.069 1.321s.422.056.854.041l.785-.028zm4.411.022v-1.32l-2.585.054-.028 1.165c-.015.641-.006 1.222.021 1.293.037.096.363.128 1.32.128h1.271zm3.804-.001v-1.32l-2 .056-.028 1.165c-.015.641-.006 1.222.021 1.293.036.093.311.128 1.028.128h.979v-1.32zm24.429 1.069c.073-.289.063-1.835-.013-2.166-.05-.216-.08-.222-1.04-.195l-.988.028-.034.293c-.019.161-.003.743.034 1.293l.068 1h.956c.945 0 .956-.003 1.019-.251zm4.397-1.066v-1.268h-2.634l-.028 1.165c-.015.641-.005 1.224.022 1.295.039.102.334.124 1.345.103l1.294-.027zm3.539-.024l.027-1.293h-1.762v1.252c0 .689.031 1.283.069 1.321s.422.056.854.041l.785-.028zm4.39 0l.027-1.293h-2.639v1.252c0 .689.031 1.282.068 1.32s.619.056 1.293.041l1.225-.027zm3.728-.003l.049-1.296-1.951.055-.028 1.165c-.015.641-.005 1.224.023 1.296.038.1.267.125.954.103l.904-.028.049-1.296zm3.238.024l-.03-1.321-1.501.057-.028 1.165c-.015.641-.006 1.222.021 1.293.035.09.273.128.808.128h.759l-.03-1.321zm3.834.004v-1.268h-2.244l-.028 1.165c-.015.641-.005 1.224.023 1.296.039.101.301.125 1.149.103l1.099-.028v-1.268zm4.39 0v-1.268l-2.731-.035.027 1.188c.015.653.047 1.244.071 1.313.033.095.355.118 1.339.098l1.294-.027v-1.268zm4.39 0v-1.268h-2.634l-.028 1.165c-.015.641-.005 1.224.022 1.295.039.102.334.124 1.345.103l1.294-.027v-1.268zm4.39 0v-1.268l-2.585-.054v1.255c0 .69.031 1.285.068 1.322s.619.056 1.293.041l1.225-.027v-1.268zm4.536 0v-1.317h-2.731v2.634h2.731zm4.604 1.146c.023-.094.039-.676.036-1.293l-.006-1.122h-2.829l-.028 1.165c-.015.641-.006 1.222.021 1.293.037.097.378.128 1.406.128 1.212 0 1.362-.018 1.399-.171zm5.325-1.122l-.027-1.293h-3.512l-.028 1.165c-.015.641-.006 1.222.021 1.293.038.099.45.128 1.811.128h1.762zm6.146 0l-.027-1.293-4.341-.053v2.638h4.395zm7.63-.026v-1.318l-5.804.052-.028 1.165c-.015.641-.006 1.222.021 1.293.039.101.647.128 2.93.128h2.881zm8.465.026l-.027-1.293-6.584-.051v2.636h6.639zM91.088 139.62c-.067-.027-.177-.027-.244 0s-.012.049.122.049.189-.022.122-.049zm28.094 0c-.067-.027-.177-.027-.244 0s-.012.049.122.049.189-.022.122-.049zm-13.388-1.196c.241-.057 1.558-.129 2.926-.159l2.693-.097c.113-.023.311-.195.439-.384s.272-.343.319-.343c.113-.001.548.47.548.593 0 .058.338.085.854.068l.854-.028.054-2.654-2.124-.069c-1.168-.038-4.473-.069-7.343-.069l-7.343.069-2.124.069.054 2.654.854.028c.67.022.854 0 .854-.105 0-.073.11-.236.243-.362l.243-.229.732.787 2.634.058c1.878.041 2.774.099 3.122.2.51.149.783.144 1.512-.028zm-15.803-1.658v-1.373h-2.634v2.622l.366.03a39.39 39.39 0 0 0 1.317.062l.951.032zm3.804-.011v-1.369l-2 .056-.028 1.214c-.015.668-.006 1.271.021 1.341.036.093.312.127 1.027.127h.979zm24.387 0v-1.369l-2 .056-.028 1.214c-.015.668-.006 1.271.021 1.341.036.093.312.127 1.027.127h.979zm3.682 1.305l.805-.063v-2.61l-2.683.054-.028 1.214c-.015.668-.006 1.271.021 1.341.055.143.615.162 1.884.064zm-96.472-1.326l-.027-1.293-3.207-.026c-2.286-.018-3.246.006-3.341.085s-.134.415-.134 1.318v1.207h6.736zm7.638 1.252c.022-.022.027-.615.011-1.318l-.03-1.278-5.793.052-.054 2.585h2.913l2.954-.04zm6.213-1.252l-.027-1.293h-4.39l-.054 2.585h4.499zm5.308-.026l-.03-1.319-3.452.053-.054 2.585h3.566l-.03-1.319zm4.663-.001v-1.32l-2.878.054-.054 2.585h2.932zm4.487.003v-1.317h-1.26c-.693 0-1.33.027-1.414.059-.129.05-.154.254-.154 1.252 0 .656.029 1.222.065 1.258s.672.065 1.414.065h1.349v-1.317zm4.409-.003l.03-1.32-2.634.054-.054 2.585h2.629zm4.371 0v-1.32l-2.585.054-.054 2.585h2.639zm4.487.1v-1.219h1.652l.055 2.39 2.195.055v-2.607l-6.633-.013v2.614h2.731v-1.219zm7.102-.073c.029-1.061.012-1.252-.119-1.303-.084-.032-.801-.017-1.593.034-1.198.077-1.304.095-.635.108l.805.015v2.447l1.507-.057zm3.542 1.049a12.08 12.08 0 0 0 .011-.439l-.011-1.073-.011-.878h-1.853v2.634h.927c.921 0 .927-.001.938-.244zm4.495-1.033c.016-.702.012-1.295-.011-1.317-.059-.058-2.504-.05-2.658.009-.1.038-.124.312-.103 1.195.015.63.047 1.2.07 1.267.031.089.394.122 1.357.122h1.315zm3.493-.04v-1.317h-1.756v2.634h1.756zm40.58 0v-1.317h-1.756v2.634h1.756zm4.39.098c0-.91.031-1.22.122-1.221.081-.001.073-.033-.024-.096-.139-.09-2.654-.142-2.739-.057-.022.022-.027.615-.011 1.317l.03 1.277h2.623zm3.707-.101v-1.32l-1.902.056-.054 2.585h1.957zm3.219.101v-1.219h1.555l.055 2.39 1.065.028c.679.018 1.088-.01 1.129-.076.051-.083.059-1.905.011-2.406-.008-.083-.714-.109-2.669-.098l-2.658.016-.028 1.165c-.015.641-.006 1.222.021 1.293.034.089.268.128.784.128h.735zm8.243-.098v-1.268l-.975-.025a28.29 28.29 0 0 0-2.195.059c-1.213.084-1.215.085-.366.098l.854.014v2.444l2.683-.054zm4.39 0v-1.268l-2.555-.054-.059 1.24c-.032.682-.036 1.277-.008 1.322s.629.07 1.336.056l1.285-.027zm4.39 0v-1.268l-2.585-.054v2.645l2.585-.054zm4.555.04c.016-.702.012-1.295-.011-1.317s-.648-.04-1.39-.04h-1.349v2.634h2.72zm4.601.447l-.035-1.805h-2.829v2.639l2.878-.054zm5.308-.463l-.027-1.293h-3.512l-.054 2.585h3.621zm6.167-.024v-1.317h-4.39v2.634h4.39zm7.609-.001v-1.318l-5.804.052-.026 1.168c-.015.642-.005 1.224.021 1.293.037.097.684.124 2.928.124h2.881zm8.465.026l-.027-1.293h-6.536l-.054 2.585h6.645zm-84.943-2.418c.456-.049 2.539-.119 4.629-.156l3.8-.067.228-.228c.125-.125.27-.228.321-.228s.093-.066.093-.146c0-.309.408-.086.84.46.08.101.35.135 1.024.131l.916-.006.028-1.016c.015-.559-.011-1.055-.058-1.102-.099-.099-25.934-.121-26.19-.022-.142.054-.166.213-.166 1.078 0 .895.02 1.016.171 1.029.805.072 1.805.046 1.884-.05.051-.062.184-.233.294-.38.216-.288.423-.343.548-.145.043.068.224.244.403.39l.325.267 2.309.001c2.584.001 6.324.16 6.845.291a1.87 1.87 0 0 0 .634.037c.161-.027.666-.089 1.122-.137zm-39.361-1.322v-1.065l-1.171-.017c-.644-.009-1.247.005-1.341.031-.149.042-.171.179-.171 1.062v1.014l1.097.028 1.341.019.244-.009v-1.065zm3.393 1.041l.564-.008-.055-2.097-.878-.029c-1.383-.045-1.317-.1-1.317 1.097v1.016l.317.031c.174.017.427.023.561.014a21.2 21.2 0 0 1 .808-.024zm3.653-.041c.083-.051.107-.289.079-.777l-.047-1.024-.006-.321-1.414.057-.028.969c-.015.533-.01 1.016.013 1.075.046.12 1.215.138 1.404.021zm3.647-.431c.02-.975-.013-1.529-.096-1.611-.044-.044-.449-.067-.9-.051l-.82.029-.028.969c-.015.533-.006 1.027.021 1.097.036.094.29.129.93.129h.881zm4.427-.561v-1.073l-1.122-.028c-1.663-.042-1.561-.114-1.561 1.097v1.017l.366.03c.201.017.805.03 1.341.03h.975zm2.954 1.026l.613-.001-.055-2.097h-1.658l-.028.969c-.033 1.141-.001 1.27.298 1.19.12-.032.494-.059.831-.06zm5.003-.977c.031-.563.027-1.059-.008-1.1s-.631-.064-1.324-.049l-1.26.027-.055 2.09.906.028 1.296.028h.39zm31.87.982l.808-.007-.055-2.097h-2.634l-.028.969c-.015.533-.009 1.018.014 1.079.026.068.245.101.565.087a44.96 44.96 0 0 1 1.33-.03zm4.264-1.039v-1.065h-1.658l-.055 2.089.759.032c.418.018.803.027.857.02s.098-.44.098-1.077zm4.32 1.038c.096-.004.119-.254.098-1.054l-.028-1.049h-2.536l-.028.969c-.015.533-.007 1.024.019 1.092.043.111.743.123 2.475.042zm3.777-1.03v-1.073l-.73-.029c-1.214-.048-1.172-.088-1.172 1.088 0 .553.031 1.037.068 1.075s.466.056.951.041l.883-.028zm3.219-.004v-1.069h-1.463l-.028 1.041c-.031 1.187-.09 1.115.906 1.104l.585-.007v-1.069zm3.812 1.005c.066-.066.064-1.91-.003-2.018-.092-.149-1.932-.138-2.082.013-.075.075-.117.458-.117 1.066 0 .91.009.95.219.98.289.041 1.935.007 1.983-.041zm4.529-1c0-.88-.022-1.019-.171-1.062-.094-.028-.697-.042-1.341-.031l-1.171.019-.028 1.041c-.033 1.226-.186 1.12 1.564 1.074l1.146-.03zm-112.765-.002v-1.026l-5.804.052-.056 2h5.86zm6.243 0v-1.026l-4.438.052-.056 2h4.494zm5.268.002v-1.024h-3.512v2.049h3.512zm4.682-.003v-1.027l-2.878.054-.056 2h2.933zm4.487-.001v-1.028l-2.878.025.028.894c.015.491.047.948.07 1.016.031.09.403.122 1.411.122h1.369v-1.028zm4.39.004v-1.024h-2.634v.959c0 .528.029.988.065 1.024s.628.065 1.317.065h1.252v-1.024zm4.39 0v-1.024h-2.634v2.049h2.634zm87.675.024l-.028-1-2.585-.054v2.054h2.641zm4.39-.049l.028-1h-2.641v2.054l2.585-.054zm4.526.024l.031-1.024h-2.78v2.049h2.719l.031-1.024zm4.567 0v-1.024h-2.829v2.049h2.829zm5.344.024l-.028-1h-3.512l-.028.87c-.016.479-.006.929.021 1 .039.101.436.13 1.812.13h1.762zm6.166-.024v-1.024h-2.189c-1.357 0-2.212.037-2.249.098-.033.054-.03.515.008 1.024l.068.927h4.363zm7.609 0v-1.024h-5.733l-.039.692c-.021.381-.022.842 0 1.024l.039.332h5.734v-1.024zm-73.6-2.189l6.316-.165 2.707-.058v-.293c0-.22.147-.459.588-.957.324-.365.554-.684.512-.709-.066-.039-11.74-.214-14.27-.214-3.155 0-14.254.184-14.286.237-.022.035.197.343.485.683.341.403.535.725.554.923l.03.303 1.463.061c.805.033 2.517.069 3.804.079 2.622.021 7.717.229 7.807.319.032.032.198.022.369-.022s1.935-.128 3.92-.187zm-27.118-1.225v-.975h-2.634l-.028.919c-.021.669.006.941.098 1 .069.045.675.07 1.345.057l1.219-.024zm3.512 0v-.975h-1.658l-.028.87c-.016.479-.005.93.023 1.004.039.102.245.127.858.105l.806-.028zm4.516.151c.016-.453.076-.881.133-.95.168-.202-.063-.234-1.483-.204l-1.312.027-.028.87c-.016.479-.006.93.022 1.003.04.104.326.127 1.345.105l1.294-.027zm32.552-.151v-.975h-1.414c-1.212 0-1.408.021-1.37.146.025.08.059.476.077.878s.052.788.075.856c.032.095.354.118 1.337.098l1.294-.027zm3.56.012l-.049-.988h-1.658l-.028.87c-.016.479-.005.931.023 1.005.039.102.258.131.906.118l.855-.017zm4.369-.04l.028-1.003-2.592.054-.028.87c-.016.479-.006.93.022 1.003.04.104.317.127 1.297.105l1.246-.027zm-97.527-.022v-.975h-2.809c-2.055 0-2.841.031-2.926.117-.073.073-.117.438-.117.975v.858h5.853zm6.243 0v-.975h-2.089c-1.149 0-2.159.027-2.244.059-.124.048-.154.224-.154.91 0 .468.029.881.065.916s1.045.065 2.244.065h2.179zm5.268-.002v-.978l-3.463.053-.056 1.902h3.519zm4.661.027l-.028-.951-1.219-.028c-1.762-.041-1.658-.104-1.658 1.006v.925h2.934zm4.487 0l-.028-.951-1.171-.028c-1.696-.041-1.61-.091-1.61.941 0 .473.029.889.065.925s.674.065 1.418.065h1.353zm4.419.911c.022-.022.027-.462.01-.978l-.031-.938-2.572.054-.029.821c-.016.452-.006.88.021.951.038.099.349.13 1.305.13.69 0 1.273-.018 1.296-.04zm4.361-.911l-.028-.951h-2.536l-.028.854c-.019.583-.066.856-.146.86-.065.004-.03.045.077.091s.756.087 1.442.091l1.247.007-.028-.951zm4.487 0l-.028-.951h-2.634l-.056 1.902h2.745zm3.923-.028v-.979l-2.195.055-.056 1.902h2.251zm3.122-.001v-.98l-1.414.057-.056 1.902h1.47zm3.639.59l-.03-1.568-1.805.056-.056 1.909 1.897-.056-.007-.341zm56.625-.561l-.028-.951h-1.853l-.056 1.902h1.965zm3.219 0l-.028-.951h-1.463l-.056 1.902h1.575zm3.862.561l-.024-.954-.012-.613-2.195.055-.029.821c-.016.452-.006.881.023.954.04.104.292.127 1.15.106l1.099-.028zm4.43-.561l-.028-.951h-2.634l-.056 1.902h2.745zm4.508.854c.163-.052.187-.081.073-.088-.188-.011-.195-.047-.217-1.034l-.015-.683h-2.524l-.056 1.902 1.247-.01c.686-.005 1.357-.045 1.491-.088zm1.414 0c.035-.057-.055-.095-.214-.091-.241.006-.251.017-.079.091l.214.091c.01.004.046-.037.079-.091zm2.829-.878v-.927h-2.634l-.029.821c-.016.452-.006.881.022.954.04.105.324.127 1.345.106l1.294-.027zm4.515.024l-.028-.951h-2.634l-.056 1.902h2.745zm4.585 0l-.028-.951h-2.731l-.056 1.902h2.843zm5.365 0l-.028-.951h-3.512l-.029.821c-.016.452-.006.88.021.951.039.102.433.13 1.812.13h1.762zm6.146 0l-.028-.951h-4.39l-.029.821c-.016.452-.006.88.021.951.04.103.507.13 2.251.13h2.201zm7.609 0l-.028-.951-5.707-.052v1.954h5.762zm-124.036.789c-.067-.027-.177-.027-.244 0s-.012.049.122.049.189-.022.122-.049zm.585 0c-.067-.027-.177-.027-.244 0s-.012.049.122.049.189-.022.122-.049zm91.695 0c-.067-.027-.177-.027-.244 0s-.012.049.122.049.189-.022.122-.049zm-45.372-2.511c.635-.264 2.996-.355 13.01-.504l3.951-.097c.12-.033.146-.257.146-1.246v-1.205l-8.584-.085-18.193-.004-8.877.157-.341.077.634.02v1.125c0 .813.034 1.136.122 1.165.067.022 3.129.087 6.804.145 6.928.108 9.596.226 10.096.445.391.171.831.174 1.232.008zm-72.588-1.814v-1.268H30.25c-1.525 0-2.842.027-2.926.059-.129.049-.154.251-.154 1.211 0 .83.034 1.166.122 1.201.067.027 1.384.053 2.926.057l2.805.008zm.805 1.204c-.067-.027-.177-.027-.244 0s-.012.049.122.049.189-.022.122-.049zm4.771-.033h.667v-2.442l-4.438.052-.028 1.163c-.02.862.005 1.186.098 1.25.069.049.774.063 1.58.032l2.122-.055zM85.579 126l.027-1.248-1.713.056-.028 1.116c-.015.614-.005 1.175.023 1.248.038.099.249.125.857.104l.806-.028zm40.553.028v-1.219l-.841-.028c-.837-.028-.842-.027-.89.225-.051.266.011 1.957.079 2.173.029.093.253.118.846.098l.806-.028zm4.438-.057v-1.217l-2.683.054.022 1.163c.012.64.062 1.188.112 1.219s.644.043 1.32.026l1.229-.03zm44.558.031l.027-1.246-4.444.052v2.341l1.219.055c.671.03 1.658.052 2.195.049l.975-.006zm7.581.026v-1.219l-5.707-.052v2.542l5.707-.052zm-138.1-.024l-.027-1.195H41.07l-.055 2.39h3.621zm4.606-.024v-1.219h-1.309c-.72 0-1.378.027-1.463.059-.129.049-.154.251-.154 1.219v1.16h2.926zm4.466.024l-.027-1.195H51.02l-.055 2.39h2.743zm4.411.073c0-.831.032-1.123.122-1.125.069-.002.05-.045-.045-.1s-.706-.086-1.414-.07l-1.247.027-.028 1.067c-.015.587-.006 1.124.021 1.195.037.097.36.128 1.32.128h1.271zm4.368-.073l-.027-1.195h-2.536l-.055 2.39h2.646zm4.487 0l-.027-1.195h-2.634l-.055 2.39h2.743zm3.923-.024v-1.219h-2.244v1.154c0 .635.029 1.184.065 1.219s.541.065 1.122.065h1.057zm3.122-.004v-1.224l-1.414.057-.055 2.39h1.469zm3.658.004v-1.171h-1.853l-.055 2.397 1.908-.056zm4.438-.003v-1.222l-2.683.054-.055 2.39h2.737zm52.167.027l-.027-1.195h-1.853l-.055 2.39h1.963zm3.192-.024v-1.171h-1.463l-.055 2.398 1.518-.057zm3.853-.003v-1.223l-2.195.055-.028 1.067c-.015.587-.006 1.124.021 1.195.037.095.326.128 1.125.128h1.076zm4.466.028l-.027-1.195h-2.634l-.055 2.39h2.743zm4.313-.027v-1.222l-2.487.055-.055 2.39h2.542zm4.438.003v-1.171h-2.634l-.028 1.067c-.015.587-.005 1.126.022 1.198.039.103.332.125 1.345.104l1.294-.027v-1.171zm4.515.024l-.027-1.195h-2.634l-.055 2.39h2.743zm4.585 0l-.027-1.195h-2.829l-.028 1.067c-.015.587-.006 1.124.021 1.195.038.098.386.128 1.47.128h1.421zm5.365 0l-.027-1.195h-3.512l-.055 2.39h3.621zm-45.593-1.129c.027-.044-.08-.061-.238-.038s-.287.059-.287.08c0 .074.477.036.526-.042zm-18.091-1.132c.063-.076.277-.162.475-.191.445-.064 5.267-.14 13.773-.217l6.56-.103c.04-.025.073-.402.073-.839 0-.784.005-.8.358-1.162.262-.269.321-.38.219-.418s-16.998-.144-21.745-.139l-21.745.138c-.102.038-.043.149.219.418.357.365.358.369.358 1.216 0 .616.033.849.122.846a2561.98 2561.98 0 0 1 16.461.151c3.851.059 4.115.077 4.294.294.151.182.428.185.577.005zm-66.055-1.642l-.027-1.293-2.087.019c-1.148.011-2.147.042-2.219.07-.101.039-.132.325-.132 1.208 0 .637.029 1.187.065 1.222s1.047.065 2.246.065h2.181zm4.038 1.195h1.257l-.055-2.487H41.07l-.049 1.244c-.031.782-.013 1.261.049 1.29.054.025.29.025.526 0s.994-.046 1.686-.046zm125.702-1.024c.044-1.658.21-1.512-1.725-1.512-1.287 0-1.669.03-1.757.136-.075.09-.103.51-.085 1.244l.028 1.108 1.366.049 1.756.049h.39zm6.166-.131v-1.253l-1.097-.063c-1.385-.08-3.034-.082-3.235-.005-.129.05-.154.254-.154 1.252 0 .656.029 1.222.065 1.258s1.045.065 2.244.065h2.179v-1.253zm-125.934-.112v-1.268h-1.309c-.72 0-1.378.027-1.463.059-.129.049-.154.25-.154 1.203 0 .629.029 1.173.065 1.209s.694.065 1.463.065h1.398zm4.438 0v-1.219H51.02l-.028 1.116c-.015.614-.005 1.175.022 1.247.039.102.333.125 1.345.104l1.294-.027zm4.45.829c.012-.418.012-.771-.003-1.588l-.009-.515-2.585.054-.028 1.116c-.015.614-.004 1.177.024 1.251.041.108.307.129 1.32.104l1.268-.032zm4.329-.829v-1.219l-1.157-.028c-.769-.018-1.202.01-1.293.085-.101.084-.136.392-.136 1.215 0 .968.021 1.108.171 1.149.094.025.676.04 1.293.032l1.122-.015zm4.487 0v-1.219h-2.634l-.028 1.116c-.015.614-.005 1.175.022 1.247.039.102.333.125 1.345.104l1.294-.027zm3.929.024l-.027-1.244-.878-.029c-1.397-.046-1.317-.121-1.317 1.234 0 .634.029 1.182.065 1.217s.542.065 1.125.065h1.06zm3.143-.029v-1.272l-1.414.057-.028 1.116c-.015.614-.006 1.173.021 1.244.034.089.259.128.735.128h.686zm3.658.004v-1.219h-1.853l-.055 2.495 1.908-.056v-1.219zm4.417.024l-.027-1.244-1.122-.028c-1.678-.042-1.561-.135-1.561 1.233 0 .634.029 1.182.065 1.217s.652.065 1.369.065h1.304l-.027-1.244zm48.481 0l-.027-1.244h-2.536l-.049 1.204c-.027.662-.03 1.222-.008 1.244s.627.04 1.344.04h1.304l-.027-1.244zm3.707 0l-.027-1.244h-1.853l-.028 1.116c-.015.614-.006 1.173.021 1.244.036.093.302.128.982.128h.933zm3.192-.024v-1.219h-1.463l-.028 1.116c-.015.614-.005 1.175.023 1.248.038.098.232.125.759.104l.709-.029zm3.832.024l-.027-1.244-.878-.029c-1.397-.046-1.317-.121-1.317 1.234 0 .634.029 1.182.065 1.217s.542.065 1.125.065h1.06zm4.46-.024v-1.219h-2.634l-.028 1.116c-.015.614-.005 1.175.022 1.247.039.102.333.125 1.345.104l1.294-.027zm4.292 0v-1.219h-2.439l-.028 1.116c-.015.614-.005 1.175.022 1.247.039.102.316.125 1.247.104l1.197-.027zm4.422 1.225c.144-.045.157-.19.114-1.248l-.049-1.196h-2.634l-.027 1.188c-.027 1.171-.024 1.188.195 1.223.387.061 2.231.087 2.401.033zm4.601-1.2l-.049-1.244h-2.634l-.028 1.116c-.015.614-.006 1.173.021 1.244.037.097.375.128 1.393.128h1.344l-.049-1.244zm4.563 0l-.027-1.244-1.358-.027c-1.021-.02-1.378.004-1.437.098-.095.149-.11 2.259-.017 2.352.036.036.696.065 1.466.065h1.401zm-58.181-2.195c.308-.219.311-.22 5.722-.282l17.973-.181 1.439-.001.002-1.707.725-.579c.399-.319.707-.609.685-.645-.032-.051-21.185-.239-26.921-.239l-27.021.245c-.024.039.289.346.697.68l.741.608-.066.76c-.036.418-.03.782.014.81s3.328.081 7.298.119l17.853.408c.367.274.481.274.861.003zm-60.904-1.978v-1.514l-3.463.053-.054 2.975h3.517zm4.731.002v-1.463h-2.926l-.054 2.98 2.98-.054v-1.463zm4.417.024l-.027-1.488H51.02l-.054 2.975h2.742zm4.412-.027v-1.515l-2.585.054-.054 2.975h2.639zm4.368.027l-.027-1.488h-2.536l-.027 1.361c-.015.749-.005 1.418.021 1.488.036.095.368.127 1.322.127h1.274zm4.509-.004l-.049-1.484h-2.634l-.027 1.359c-.015.748-.072 1.413-.126 1.478-.077.093.231.12 1.393.125l1.492.006-.049-1.484zm3.902-.02v-1.512h-.967c-.532 0-1.037.027-1.122.059-.131.05-.154.272-.154 1.447 0 .763.029 1.417.065 1.453s.541.065 1.122.065h1.057zm1.404 1.398c-.028-.045-.19-.077-.362-.072-.292.009-.296.014-.067.079.328.094.49.091.429-.008zm1.717-1.402v-1.516l-1.414.057-.027 1.361c-.015.749-.005 1.418.021 1.488.033.087.262.127.734.127h.686zm3.669.16c.006-.719-.01-1.39-.037-1.491-.043-.166-.135-.181-.938-.156l-.89.028-.054 2.982 1.907-.056zm56.593-.132l-.027-1.488h-1.853l-.027 1.361c-.015.749-.005 1.418.021 1.488.035.092.307.127.981.127h.932zm3.192-.024v-1.463h-1.463l-.027 1.361c-.015.749-.005 1.42.023 1.492.037.097.235.123.759.102l.709-.029zm.907 1.369c.028-.028-.085-.052-.251-.052s-.328.041-.359.091c-.057.093.515.056.611-.039zm2.924-1.344l-.027-1.488h-2.146l-.027 1.361c-.015.749-.005 1.418.021 1.488.036.093.333.127 1.127.127h1.079zm4.417 1.442c.116-.045.132-.298.092-1.492l-.049-1.438h-2.634l-.098 2.956 1.274.013c.701.007 1.337-.011 1.414-.04zm4.384-1.469v-1.515l-2.487.055-.098 2.976h2.585v-1.515zm4.465.027l-.027-1.488h-2.634l-.027 1.361c-.015.749-.005 1.418.021 1.488.037.095.377.127 1.371.127h1.322zm4.487 0l-.027-1.488h-2.634l-.054 2.975h2.742zm4.607-.027v-1.515l-2.878.054-.027 1.361c-.015.749-.005 1.418.021 1.488.037.096.394.127 1.466.127h1.418zm5.356.106c-.012-.775-.05-1.456-.086-1.514-.044-.071-.625-.097-1.765-.079l-1.7.027-.054 2.975h3.626zm-62.763-2.585c1.345-.181 7.095-.292 17.406-.336s10.483-.048 10.633-.239c.084-.106.503-.444.933-.75l.78-.556.098 1.436.658.029c.362.016.66-.006.662-.049l.03-1.192c.025-1.022.045-1.126.241-1.256.117-.078.213-.174.213-.214 0-.052-24.643-.213-32.874-.214-6.292-.001-32.768.142-32.874.178s-.086.082.098.18c.235.126.246.174.293 1.334l.049 1.203h1.366l.098-1.416.816.583c.449.32.866.652.928.736.101.138 1.448.163 12.938.241l13.07.134c.134.025.741.075 1.348.11s1.2.104 1.317.155c.213.091.491.076 1.773-.097zm-43.799-1.81v-1.366h-2.536l-.054 2.672.515.03c.283.016.866.03 1.295.03h.78zm8.319 1.333c.096-.012.118-.326.098-1.357l-.027-1.341-.878-.029c-1.41-.046-1.317-.145-1.317 1.388 0 .941.033 1.318.119 1.347.109.036 1.715.031 2.006-.007zm70.478-.003c.042-.007.064-.616.049-1.354l-.027-1.341-1.002-.028c-.75-.021-1.011.004-1.041.098-.021.069-.062.682-.09 1.363-.045 1.107-.033 1.242.114 1.273s1.8.022 1.996-.011zm8.435.001l.415-.014v-2.737l-2.487.055-.027 1.263c-.015.695-.008 1.313.016 1.375.04.105.364.114 2.085.058zm-105.154-1.355l-.027-1.341-1.756-.024c-.966-.013-1.815.014-1.887.06-.108.07-.104.136.024.385.112.217.156.575.156 1.281v.98h3.517zm4.727.878l-.015-1.341-.008-.927h-1.309c-.72 0-1.378.027-1.463.059-.13.05-.154.265-.154 1.368v1.309l2.957-.054-.008-.415zm4.443-.878l-.027-1.341H51.02l-.054 2.683h2.742zm4.411-.027v-1.369l-2.585.054-.054 2.683h2.639zm8.806.027l-.022-1.341h-2.589l-.054 2.683h2.688zm78.868 0l-.027-1.341h-2.634l-.054 2.683h2.742zm8.779 0l-.027-1.341-1.26-.027c-.943-.021-1.28.004-1.34.098-.044.069-.08.685-.081 1.369l-.001 1.244h2.737zm4.487 0l-.027-1.341h-2.634l-.054 2.683h2.742zm4.585 0l-.027-1.341h-2.829l-.054 2.683h2.937zm5.348.297c.019-.65.081-1.095.178-1.283.134-.259.133-.293-.003-.346-.084-.032-.934-.058-1.889-.058-1.494 0-1.746.022-1.797.154-.082.213-.075 2.431.008 2.514.037.037.834.055 1.77.041l1.703-.027.029-.995zm-144.051-6.448c-.19-.095-.331-.239-.331-.34s-.062-.212-.136-.258c-.208-.128-.051-.388.33-.548.299-.125 4.718-.143 34.704-.141l34.947.041c.322.021 2.517.09 4.877.154s4.534.16 4.829.214c.67.124 1.062.124 1.805-.001.322-.054 2.539-.149 4.926-.211l4.78-.154c.241-.023 15.915-.043 34.83-.044l34.705.107c.374.13.595.46.393.585-.073.045-.137.127-.144.183l-.024.203c-.046.383 1.056.374-38.787.322l-39.873-.122a49.9 49.9 0 0 0-3.463 0c-.952.04-18.9.096-39.884.124-35.684.047-38.174.04-38.483-.114zm2.199-3.999c-.103-.016-.286-.078-.405-.137l-.217-.108.263-.483c.145-.266.357-.519.473-.563s14.954-.089 32.974-.1l42.519.317c2.291.145 2.326.145 4.536 0 4.518-.296 9.994-.337 42.569-.316l32.977.101c.116.044.318.281.449.527.217.41.224.459.08.603s-2.959.155-32.824.139l-38.861-.086c-3.407-.038-9.728-.033-14.047.009l-70.485.098zm2.983-5.119c-.161-.042-.293-.097-.293-.122s.122-.242.271-.482l.271-.435 11.264-.076 36.578-.075 25.948.128c.808.161.877.161 1.756.002.603-.109 5.194-.132 26.045-.132l36.532.076 11.218.076.549.959-.372.08c-.302.065-17.45.078-74.85.056-.241 0-17.13.005-37.531.011s-37.224-.023-37.385-.065zm3.706-4.427c-.195-.103-.342-.254-.342-.354s-.063-.214-.14-.261c-.119-.074-.12-.11-.003-.25a1.05 1.05 0 0 1 .369-.253c.308-.117 56.404-.194 61.913-.085 6.321.125 8.642.24 9.081.448.344.163.376.163.657.002.363-.208 2.796-.328 9.138-.451 5.58-.108 61.561-.03 61.866.086.127.048.293.162.368.252.117.14.116.176-.004.25-.077.048-.146.132-.152.188l-.024.204c-.007.056-.177.172-.378.258-.333.142-3.355.149-34.02.086l-35.377-.144c-.948-.041-2.528-.041-3.512 0s-16.933.103-35.443.139c-32.559.062-33.665.058-33.995-.115zm3.609-4.235c-.687-.06-.975-.152-.975-.31 0-.055.163-.314.361-.575l.361-.474 10.101-.002 27.123-.04c20.512-.046 27.168.067 29.363.499 1.03.203 1.474.202 2.584-.002 1.084-.2 3.336-.328 7.52-.427 2.949-.07 8.433-.075 46.136-.039l12.881.012.361.474c.199.261.361.501.361.534s-.106.13-.235.214c-.213.14-2.924.153-28.801.144l-33.736-.117c-6.285-.13-5.237-.131-12.242.006-5.984.116-59.974.208-61.163.104zm4.073-4.116c-.148-.124-.268-.298-.268-.387s-.067-.199-.148-.245c-.122-.069-.096-.132.153-.371l.3-.288 13.431-.054 47.67.09c1.393.062 1.831.115 2.12.258.353.174.37.174.561.001.169-.153.462-.19 2.026-.259 2.398-.106 30.5-.159 47.646-.09l13.528.054.3.288c.249.239.275.302.153.371-.081.045-.148.165-.148.265s-.149.274-.343.394l-.343.212-30.848-.063-31.556-.162a5.07 5.07 0 0 0-1.414 0c-.456.063-11.698.118-31.63.155l-30.923.057zm3.682-3.469c-.333-.037-.732-.363-.732-.599 0-.087.165-.312.366-.5l.366-.342 27.509.008 31.388.412c.666.2 1.159.201 1.876.005 1.43-.392 2.733-.409 31.439-.411l27.537-.002.306.316c.387.399.421.624.136.892l-.226.212-22.915-.007-29.645-.116c-8.157-.132-6.855-.133-16.144.006l-51.261.128zm3.634-2.748c-.344-.066-.787-.463-.717-.644.03-.079-.01-.169-.09-.199-.216-.083-.17-.255.127-.474.263-.194.441-.195 23.872-.223l32.044.273c.241.057.56.19.707.297.268.194.268.194.537 0 .465-.337 1.054-.398 4.755-.493 4.238-.109 51.099-.131 51.457-.024.565.168.858.52.536.644-.081.031-.142.091-.135.132.036.222-.041.386-.256.543-.228.166-1.127.173-18.799.16l-37.509-.277c-.256-.101-.378-.101-.634-.002-.244.095-2.898.141-11.501.203l-44.394.084zm4.298-2.943c-.327-.067-.665-.387-.665-.628 0-.075-.044-.136-.098-.136-.298 0 .027-.429.446-.588.18-.068 7.202-.1 21.815-.098l29.617.307c.144.054.383.214.531.355l.268.256.268-.256c.148-.141.386-.3.529-.354.677-.256 5.497-.306 29.599-.308l21.834.099c.481.183.69.511.397.623-.08.031-.146.144-.146.252s-.111.269-.246.357c-.275.18-2.756.183-35.651.042l-16.217-.199c-.304-.109-.428-.109-.732-.002-.295.104-3.975.144-19.095.206l-25.431.107c-3.686.017-6.846.001-7.021-.035zm3.102-3.049c-.154-.126-.254-.273-.221-.327s-.005-.152-.085-.218c-.206-.171-.187-.213.214-.487l.358-.244h23.467l23.871.123c.415.126 1.04.667.98.848-.018.056-.206.166-.416.244-.324.12-2.221.152-12.284.207l-23.753.074-11.852.009-.281-.23zm60.273.138c-10.548-.055-11.022-.072-11.225-.401-.094-.153.534-.753.93-.889.266-.091 4.874-.126 19.904-.152l23.588.034 4.03.067.29.244c.272.229.28.256.13.421-.088.097-.135.216-.106.265s-.074.183-.23.299l-.285.211-13.295-.022-23.732-.077zm-55.041-3.042c-.121-.059-.219-.151-.219-.204s-.068-.146-.152-.207c-.204-.149-.103-.369.277-.599.299-.181.591-.193 5.972-.245l34.564.097c2.36.075 2.485.089 2.774.302l.303.224.397-.232c.372-.218.522-.236 2.445-.292 4.844-.142 36.306-.172 39.36-.037.95.042 1.39.102 1.582.215.334.197.425.422.228.566-.083.061-.152.156-.152.21 0 .322-.339.326-21.905.276l-43.842-.008c-15.532.03-21.472.012-21.631-.066zm5.437-2.914c-.135-.05-.289-.19-.342-.311-.09-.204-.037-.251.768-.681l.865-.462 15.28.002 20.678.296c.226.068.524.235.661.372l.249.249.163-.213c.331-.434.857-.518 3.87-.619 1.587-.053 9.444-.083 17.9-.067l15.071.028 1.602.884-.462.579h-18.568c-15.486 0-18.659-.022-19.118-.135-.469-.115-.599-.115-.878 0s-3.334.138-18.91.153c-11.392.011-18.678-.017-18.828-.074zm5.391-2.48c-.174-.081-.317-.214-.317-.296s-.073-.177-.162-.211c-.172-.066.307-.31 1.499-.763l.605-.23 13.978-.021 15.002.052c.563.04 1.282.137 1.596.215.441.11.642.118.878.035.797-.281 2.691-.315 16.632-.299l14.18.017.696.279c1.258.504 1.55.655 1.385.719-.084.032-.153.125-.153.207s-.165.219-.366.307c-.334.145-1.697.153-15.925.1l-16.176-.151c-.39-.058-.821-.058-1.171.001-.328.055-6.925.113-16.21.14-13.815.042-15.694.03-15.973-.1zm9.167-2.359c-.177-.073-.361-.24-.412-.374s-.159-.242-.241-.242c-.44 0 .137-.752.68-.888.586-.147 21.648-.128 22.399.02.424.083.654.193.869.413l.293.3.27-.296c.205-.224.414-.324.865-.413.796-.157 21.715-.185 22.371-.03.585.138 1.202.894.729.894-.082 0-.191.111-.242.246a.75.75 0 0 1-.363.359c-.201.084-2.877.108-10.415.094-10.586-.021-12.246-.056-12.852-.269-.312-.11-.427-.106-.78.023-.493.181-2.291.213-14.657.262-6.708.027-8.252.009-8.514-.099zm9.913-2.323c-.055-.055-2.718-.161-3.789-.152-.593.005-.874-.024-.78-.08.223-.135 3.471-.876 4.369-.997.535-.072 2.554-.091 6.187-.057l6.32.037c.51-.007 1.475 0 2.146.016l1.966.046c.411.009.726-.017.701-.057-.076-.123.797-.081.922.044.091.091.117.091.117 0 0-.149 8.484-.163 9.511-.015.843.121 4.043.863 4.243.983.093.056-.19.085-.78.078-.51-.005-1.278.021-1.707.059-.795.07-29.359.163-29.426.095zm10.185-1.187c-.067-.027-.177-.027-.244 0s-.012.049.122.049.189-.022.122-.049z" fill="#564E58"/></svg>